<svg width="562" height="474" viewBox="0 0 562 474" fill="none" xmlns="http://www.w3.org/2000/svg">
<circle cx="232.5" cy="232.5" r="232.5" fill="url(#paint0_linear_101309_671)"/>
<path d="M165.439 137.988L180.519 74.288H188.943L190.867 84.896L174.799 150H165.751L165.439 137.988ZM157.691 74.288L170.171 137.988L169.131 150H159.043L142.247 74.288H157.691ZM204.127 137.728L216.451 74.288H231.895L215.151 150H205.063L204.127 137.728ZM193.675 74.288L208.859 138.248L208.443 150H199.395L183.223 84.844L185.303 74.288H193.675ZM268.867 87.236L248.275 150H231.687L259.819 74.288H270.375L268.867 87.236ZM285.975 150L265.331 87.236L263.667 74.288H274.327L302.615 150H285.975ZM285.039 121.816V134.036H245.051V121.816H285.039ZM337.039 74.288V150H321.491V74.288H337.039ZM360.335 74.288V86.508H298.559V74.288H360.335ZM411.659 124.884H427.207C426.895 129.98 425.491 134.504 422.995 138.456C420.533 142.408 417.084 145.493 412.647 147.712C408.244 149.931 402.94 151.04 396.735 151.04C391.881 151.04 387.531 150.208 383.683 148.544C379.835 146.845 376.541 144.419 373.803 141.264C371.099 138.109 369.036 134.296 367.615 129.824C366.193 125.352 365.483 120.343 365.483 114.796V109.544C365.483 103.997 366.211 98.988 367.667 94.516C369.157 90.0093 371.272 86.1787 374.011 83.024C376.784 79.8693 380.095 77.4427 383.943 75.744C387.791 74.0453 392.089 73.196 396.839 73.196C403.148 73.196 408.469 74.34 412.803 76.628C417.171 78.916 420.551 82.0707 422.943 86.092C425.369 90.1133 426.825 94.6893 427.311 99.82H411.711C411.537 96.7693 410.931 94.1867 409.891 92.072C408.851 89.9227 407.273 88.3107 405.159 87.236C403.079 86.1267 400.305 85.572 396.839 85.572C394.239 85.572 391.968 86.0573 390.027 87.028C388.085 87.9987 386.456 89.472 385.139 91.448C383.821 93.424 382.833 95.92 382.175 98.936C381.551 101.917 381.239 105.419 381.239 109.44V114.796C381.239 118.713 381.533 122.163 382.123 125.144C382.712 128.091 383.613 130.587 384.827 132.632C386.075 134.643 387.669 136.168 389.611 137.208C391.587 138.213 393.961 138.716 396.735 138.716C399.993 138.716 402.68 138.196 404.795 137.156C406.909 136.116 408.521 134.573 409.631 132.528C410.775 130.483 411.451 127.935 411.659 124.884ZM487.943 105.124V117.292H448.423V105.124H487.943ZM453.051 74.288V150H437.451V74.288H453.051ZM499.071 74.288V150H483.523V74.288H499.071ZM202.203 154.288L218.011 188.816L233.819 154.288H250.823L225.915 202.44V230H210.107V202.44L185.147 154.288H202.203ZM318.371 190.376V193.964C318.371 199.719 317.591 204.884 316.031 209.46C314.471 214.036 312.269 217.936 309.427 221.16C306.584 224.349 303.187 226.793 299.235 228.492C295.317 230.191 290.967 231.04 286.183 231.04C281.433 231.04 277.083 230.191 273.131 228.492C269.213 226.793 265.816 224.349 262.939 221.16C260.061 217.936 257.825 214.036 256.231 209.46C254.671 204.884 253.891 199.719 253.891 193.964V190.376C253.891 184.587 254.671 179.421 256.231 174.88C257.791 170.304 259.992 166.404 262.835 163.18C265.712 159.956 269.109 157.495 273.027 155.796C276.979 154.097 281.329 153.248 286.079 153.248C290.863 153.248 295.213 154.097 299.131 155.796C303.083 157.495 306.48 159.956 309.323 163.18C312.2 166.404 314.419 170.304 315.979 174.88C317.573 179.421 318.371 184.587 318.371 190.376ZM302.615 193.964V190.272C302.615 186.251 302.251 182.715 301.523 179.664C300.795 176.613 299.72 174.048 298.299 171.968C296.877 169.888 295.144 168.328 293.099 167.288C291.053 166.213 288.713 165.676 286.079 165.676C283.444 165.676 281.104 166.213 279.059 167.288C277.048 168.328 275.332 169.888 273.911 171.968C272.524 174.048 271.467 176.613 270.739 179.664C270.011 182.715 269.647 186.251 269.647 190.272V193.964C269.647 197.951 270.011 201.487 270.739 204.572C271.467 207.623 272.541 210.205 273.963 212.32C275.384 214.4 277.117 215.977 279.163 217.052C281.208 218.127 283.548 218.664 286.183 218.664C288.817 218.664 291.157 218.127 293.203 217.052C295.248 215.977 296.964 214.4 298.351 212.32C299.737 210.205 300.795 207.623 301.523 204.572C302.251 201.487 302.615 197.951 302.615 193.964ZM371.411 154.288H386.959V204.312C386.959 210.136 385.711 215.041 383.215 219.028C380.753 223.015 377.339 226.013 372.971 228.024C368.637 230.035 363.645 231.04 357.995 231.04C352.344 231.04 347.317 230.035 342.915 228.024C338.547 226.013 335.115 223.015 332.619 219.028C330.157 215.041 328.927 210.136 328.927 204.312V154.288H344.527V204.312C344.527 207.709 345.064 210.483 346.139 212.632C347.213 214.781 348.756 216.359 350.767 217.364C352.812 218.369 355.221 218.872 357.995 218.872C360.837 218.872 363.247 218.369 365.223 217.364C367.233 216.359 368.759 214.781 369.799 212.632C370.873 210.483 371.411 207.709 371.411 204.312V154.288ZM399.803 154.288H428.039C433.828 154.288 438.803 155.155 442.963 156.888C447.157 158.621 450.381 161.187 452.635 164.584C454.888 167.981 456.015 172.159 456.015 177.116C456.015 181.172 455.321 184.656 453.935 187.568C452.583 190.445 450.659 192.855 448.163 194.796C445.701 196.703 442.807 198.228 439.479 199.372L434.539 201.972H409.995L409.891 189.804H428.143C430.881 189.804 433.152 189.319 434.955 188.348C436.757 187.377 438.109 186.025 439.011 184.292C439.947 182.559 440.415 180.548 440.415 178.26C440.415 175.833 439.964 173.736 439.063 171.968C438.161 170.2 436.792 168.848 434.955 167.912C433.117 166.976 430.812 166.508 428.039 166.508H415.403V230H399.803V154.288ZM442.131 230L424.867 196.252L441.351 196.148L458.823 229.272V230H442.131ZM160.031 327.236L139.439 390H122.851L150.983 314.288H161.539L160.031 327.236ZM177.139 390L156.495 327.236L154.831 314.288H165.491L193.779 390H177.139ZM176.203 361.816V374.036H136.215V361.816H176.203ZM262.419 314.288V390H246.819L216.399 339.248V390H200.799V314.288H216.399L246.871 365.092V314.288H262.419ZM292.579 314.288V390H277.031V314.288H292.579ZM314.315 314.288H327.523L346.971 369.876L366.419 314.288H379.627L352.275 390H341.667L314.315 314.288ZM307.191 314.288H320.347L322.739 368.472V390H307.191V314.288ZM373.595 314.288H386.803V390H371.203V368.472L373.595 314.288ZM432.199 327.236L411.607 390H395.019L423.151 314.288H433.707L432.199 327.236ZM449.307 390L428.663 327.236L426.999 314.288H437.659L465.947 390H449.307ZM448.371 361.816V374.036H408.383V361.816H448.371ZM521.639 377.832V390H483.523V377.832H521.639ZM488.567 314.288V390H472.967V314.288H488.567ZM205.843 430.376V433.964C205.843 439.719 205.063 444.884 203.503 449.46C201.943 454.036 199.741 457.936 196.899 461.16C194.056 464.349 190.659 466.793 186.707 468.492C182.789 470.191 178.439 471.04 173.655 471.04C168.905 471.04 164.555 470.191 160.603 468.492C156.685 466.793 153.288 464.349 150.411 461.16C147.533 457.936 145.297 454.036 143.703 449.46C142.143 444.884 141.363 439.719 141.363 433.964V430.376C141.363 424.587 142.143 419.421 143.703 414.88C145.263 410.304 147.464 406.404 150.307 403.18C153.184 399.956 156.581 397.495 160.499 395.796C164.451 394.097 168.801 393.248 173.551 393.248C178.335 393.248 182.685 394.097 186.603 395.796C190.555 397.495 193.952 399.956 196.795 403.18C199.672 406.404 201.891 410.304 203.451 414.88C205.045 419.421 205.843 424.587 205.843 430.376ZM190.087 433.964V430.272C190.087 426.251 189.723 422.715 188.995 419.664C188.267 416.613 187.192 414.048 185.771 411.968C184.349 409.888 182.616 408.328 180.571 407.288C178.525 406.213 176.185 405.676 173.551 405.676C170.916 405.676 168.576 406.213 166.531 407.288C164.52 408.328 162.804 409.888 161.383 411.968C159.996 414.048 158.939 416.613 158.211 419.664C157.483 422.715 157.119 426.251 157.119 430.272V433.964C157.119 437.951 157.483 441.487 158.211 444.572C158.939 447.623 160.013 450.205 161.435 452.32C162.856 454.4 164.589 455.977 166.635 457.052C168.68 458.127 171.02 458.664 173.655 458.664C176.289 458.664 178.629 458.127 180.675 457.052C182.72 455.977 184.436 454.4 185.823 452.32C187.209 450.205 188.267 447.623 188.995 444.572C189.723 441.487 190.087 437.951 190.087 433.964ZM278.695 394.288V470H263.095L232.675 419.248V470H217.075V394.288H232.675L263.147 445.092V394.288H278.695ZM340.939 457.832V470H302.823V457.832H340.939ZM307.867 394.288V470H292.267V394.288H307.867ZM366.471 394.288V470H350.923V394.288H366.471ZM442.703 394.288V470H427.103L396.683 419.248V470H381.083V394.288H396.683L427.155 445.092V394.288H442.703ZM507.079 457.832V470H466.779V457.832H507.079ZM471.875 394.288V470H456.275V394.288H471.875ZM501.827 425.124V436.98H466.779V425.124H501.827ZM507.027 394.288V406.508H466.779V394.288H507.027Z" fill="white"/>
<path d="M104.391 234.288V310H88.7907V234.288H104.391ZM134.551 266.632V278.8H100.127V266.632H134.551ZM138.191 234.288V246.508H100.127V234.288H138.191ZM168.455 247.236L147.863 310H131.275L159.407 234.288H169.963L168.455 247.236ZM185.563 310L164.919 247.236L163.255 234.288H173.915L202.203 310H185.563ZM184.627 281.816V294.036H144.639V281.816H184.627ZM232.259 294.192L250.095 234.288H267.463L241.099 310H229.659L232.259 294.192ZM215.827 234.288L233.611 294.192L236.315 310H224.771L198.563 234.288H215.827ZM335.999 270.376V273.964C335.999 279.719 335.219 284.884 333.659 289.46C332.099 294.036 329.897 297.936 327.055 301.16C324.212 304.349 320.815 306.793 316.863 308.492C312.945 310.191 308.595 311.04 303.811 311.04C299.061 311.04 294.711 310.191 290.759 308.492C286.841 306.793 283.444 304.349 280.567 301.16C277.689 297.936 275.453 294.036 273.859 289.46C272.299 284.884 271.519 279.719 271.519 273.964V270.376C271.519 264.587 272.299 259.421 273.859 254.88C275.419 250.304 277.62 246.404 280.463 243.18C283.34 239.956 286.737 237.495 290.655 235.796C294.607 234.097 298.957 233.248 303.707 233.248C308.491 233.248 312.841 234.097 316.759 235.796C320.711 237.495 324.108 239.956 326.951 243.18C329.828 246.404 332.047 250.304 333.607 254.88C335.201 259.421 335.999 264.587 335.999 270.376ZM320.243 273.964V270.272C320.243 266.251 319.879 262.715 319.151 259.664C318.423 256.613 317.348 254.048 315.927 251.968C314.505 249.888 312.772 248.328 310.727 247.288C308.681 246.213 306.341 245.676 303.707 245.676C301.072 245.676 298.732 246.213 296.687 247.288C294.676 248.328 292.96 249.888 291.539 251.968C290.152 254.048 289.095 256.613 288.367 259.664C287.639 262.715 287.275 266.251 287.275 270.272V273.964C287.275 277.951 287.639 281.487 288.367 284.572C289.095 287.623 290.169 290.205 291.591 292.32C293.012 294.4 294.745 295.977 296.791 297.052C298.836 298.127 301.176 298.664 303.811 298.664C306.445 298.664 308.785 298.127 310.831 297.052C312.876 295.977 314.592 294.4 315.979 292.32C317.365 290.205 318.423 287.623 319.151 284.572C319.879 281.487 320.243 277.951 320.243 273.964ZM347.231 234.288H375.467C381.256 234.288 386.231 235.155 390.391 236.888C394.585 238.621 397.809 241.187 400.063 244.584C402.316 247.981 403.443 252.159 403.443 257.116C403.443 261.172 402.749 264.656 401.363 267.568C400.011 270.445 398.087 272.855 395.591 274.796C393.129 276.703 390.235 278.228 386.907 279.372L381.967 281.972H357.423L357.319 269.804H375.571C378.309 269.804 380.58 269.319 382.383 268.348C384.185 267.377 385.537 266.025 386.439 264.292C387.375 262.559 387.843 260.548 387.843 258.26C387.843 255.833 387.392 253.736 386.491 251.968C385.589 250.2 384.22 248.848 382.383 247.912C380.545 246.976 378.24 246.508 375.467 246.508H362.831V310H347.231V234.288ZM389.559 310L372.295 276.252L388.779 276.148L406.251 309.272V310H389.559ZM432.043 234.288V310H416.495V234.288H432.043ZM478.947 234.288V310H463.399V234.288H478.947ZM502.243 234.288V246.508H440.467V234.288H502.243ZM561.939 297.832V310H521.639V297.832H561.939ZM526.735 234.288V310H511.135V234.288H526.735ZM556.687 265.124V276.98H521.639V265.124H556.687ZM561.887 234.288V246.508H521.639V234.288H561.887Z" fill="#FFEE2E"/>
<defs>
<linearGradient id="paint0_linear_101309_671" x1="-20.6013" y1="68.8889" x2="540.009" y2="318.061" gradientUnits="userSpaceOnUse">
<stop stop-color="#F9804B"/>
<stop offset="1" stop-color="#FE9013"/>
</linearGradient>
</defs>
</svg>
